<?xml version="1.0" standalone="no"?>
<!DOCTYPE svg PUBLIC "-//W3C//DTD SVG 20010904//EN"
 "http://www.w3.org/TR/2001/REC-SVG-20010904/DTD/svg10.dtd">
<svg version="1.0" xmlns="http://www.w3.org/2000/svg"
 width="512.000000pt" height="512.000000pt" viewBox="0 0 512.000000 512.000000"
 preserveAspectRatio="xMidYMid meet">

<g transform="translate(0.000000,512.000000) scale(0.100000,-0.100000)"
fill="#000000" stroke="none">
<path d="M5032 4524 c-224 -114 -702 -254 -1152 -338 -255 -48 -616 -99 -990
-141 -697 -77 -1005 -97 -1500 -97 -470 0 -752 20 -1108 79 -177 30 -194 28
-200 -21 -3 -20 5 -34 27 -54 24 -20 31 -35 31 -62 0 -30 -9 -44 -72 -103 -70
-67 -71 -68 -52 -86 34 -33 114 -53 236 -58 l116 -6 6 -27 c6 -32 45 -50 108
-50 32 0 41 -5 57 -31 10 -16 22 -58 26 -92 10 -94 14 -97 98 -97 40 0 169 7
287 15 200 13 217 13 250 -3 28 -14 36 -24 41 -54 4 -23 17 -48 37 -66 52 -49
45 -64 -68 -150 -16 -13 -30 -32 -30 -43 0 -35 -40 -40 -295 -33 l-243 7 -27
-27 c-25 -25 -27 -32 -22 -78 7 -59 26 -91 70 -119 31 -20 43 -20 278 -15 218
4 250 3 280 -12 60 -30 60 -34 43 -387 -12 -238 -19 -326 -30 -348 -24 -46
-72 -60 -189 -55 -120 4 -145 16 -171 83 -22 59 -12 94 35 116 18 9 41 26 51
39 10 13 33 28 51 34 76 24 22 63 -132 96 -119 25 -182 25 -310 0 -114 -22
-158 -43 -138 -66 6 -8 20 -14 30 -14 9 0 27 -13 39 -30 16 -22 32 -32 63 -37
23 -3 52 -17 65 -30 29 -30 24 -59 -27 -157 -31 -60 -36 -79 -36 -137 0 -55 4
-72 22 -91 29 -31 32 -57 42 -314 10 -239 4 -306 -32 -364 -29 -47 -32 -174
-4 -195 27 -19 37 -69 37 -182 0 -99 1 -104 29 -135 26 -30 34 -32 91 -33 57
0 64 2 91 33 27 30 29 38 29 113 0 139 29 169 163 169 83 0 90 -2 116 -28 24
-24 28 -37 34 -111 11 -139 32 -155 207 -149 164 5 190 27 190 159 0 78 17
129 51 153 32 22 63 20 95 -7 23 -20 28 -33 33 -98 7 -90 27 -124 78 -138 48
-14 72 -14 112 0 46 16 61 53 61 152 0 69 4 89 20 110 27 34 26 111 -2 213
-19 69 -22 111 -26 340 -3 228 -2 262 12 273 24 20 21 129 -6 233 -26 101 -19
131 31 141 20 4 35 16 43 32 7 17 24 29 49 35 21 6 41 15 44 20 9 15 -36 39
-135 72 -122 40 -222 43 -326 11 -40 -13 -82 -31 -94 -41 l-23 -19 36 -27 c20
-15 39 -36 42 -47 4 -10 13 -19 21 -19 28 0 54 -38 54 -80 0 -35 -5 -43 -32
-60 -39 -24 -79 -25 -118 -5 -61 31 -60 28 -60 393 l0 334 32 32 c40 40 -29
34 921 82 551 28 733 34 751 26 14 -6 33 -23 42 -37 16 -24 16 -49 5 -338 -13
-339 -21 -405 -52 -433 -22 -20 -81 -23 -103 -5 -16 14 -27 136 -15 169 5 13
24 29 42 37 18 7 38 25 45 39 6 15 23 31 37 38 37 17 33 52 -9 72 -147 70
-366 64 -543 -14 -50 -22 -58 -50 -15 -50 32 0 72 -25 72 -45 0 -8 16 -25 35
-37 49 -32 59 -64 50 -151 -12 -111 -11 -294 2 -372 8 -42 13 -170 13 -316 0
-202 -3 -255 -17 -300 -22 -71 -21 -201 1 -252 13 -30 15 -54 10 -112 -7 -73
-6 -74 24 -104 29 -30 34 -31 117 -31 128 0 165 28 165 123 0 81 58 135 116
108 28 -12 54 -65 54 -110 0 -17 5 -42 12 -56 21 -47 53 -55 212 -55 141 0
145 1 175 26 30 25 31 29 31 104 0 63 4 82 21 104 50 64 122 13 134 -96 6 -49
13 -68 35 -90 26 -26 35 -28 103 -28 113 0 120 8 129 157 4 65 10 157 14 204
5 70 2 99 -15 161 -20 70 -21 99 -21 470 0 224 4 419 10 449 8 41 18 62 45 87
19 18 35 41 35 50 0 9 14 29 32 43 36 30 34 50 -11 74 -40 20 -160 45 -219 45
-81 0 -332 -68 -332 -90 0 -4 18 -15 39 -24 24 -9 45 -26 53 -43 7 -15 29 -35
49 -45 59 -28 65 -41 45 -104 -18 -58 -40 -76 -106 -88 -40 -7 -89 17 -113 56
-21 33 -96 380 -107 496 -22 221 -8 300 54 327 20 9 151 21 380 35 375 22 393
26 421 80 18 35 21 177 4 213 -24 53 -38 54 -307 19 -277 -36 -339 -39 -403
-17 -50 17 -132 76 -162 117 -25 33 -16 75 17 88 16 6 29 23 38 51 27 81 22
80 440 109 l371 25 8 25 c4 14 13 50 19 80 23 119 52 139 312 214 178 51 244
79 260 109 18 35 12 97 -21 207 -17 57 -31 109 -31 116 0 7 20 20 45 30 37 14
45 21 45 43 0 14 14 55 30 90 17 35 29 65 28 65 -2 1 -40 -17 -86 -40z m-1833
-1042 c26 -13 37 -27 46 -57 6 -25 19 -44 34 -51 55 -28 55 -71 -1 -118 -23
-20 -46 -36 -52 -36 -21 0 -87 -52 -96 -75 -12 -32 -67 -42 -278 -51 -158 -6
-174 -5 -192 11 -27 24 -26 74 4 198 23 98 44 134 91 160 11 6 92 16 180 22
223 17 226 17 264 -3z m-1125 -74 c38 -17 55 -49 76 -146 27 -118 26 -157 -4
-186 -27 -28 -90 -36 -310 -39 -129 -2 -139 -1 -150 18 -12 21 -53 63 -106
107 -39 33 -38 67 2 86 17 8 30 24 34 40 21 95 47 112 178 122 150 11 254 11
280 -2z m1167 -1664 l24 -26 3 -285 c2 -245 1 -288 -13 -309 -20 -31 -59 -31
-89 -1 -28 28 -34 95 -39 402 -2 168 0 194 16 218 23 36 65 36 98 1z m610 16
c44 -24 48 -54 51 -328 3 -251 2 -261 -18 -289 -29 -39 -86 -53 -115 -27 -12
10 -25 30 -31 43 -5 13 -13 135 -18 269 -7 198 -6 252 5 278 23 55 78 79 126
54z m-2712 -25 c49 -25 53 -51 49 -312 -4 -278 -5 -282 -90 -308 -64 -19 -128
-19 -172 -1 -29 12 -35 21 -45 64 -5 27 -15 149 -22 272 -11 215 -10 223 8
249 11 14 31 32 44 38 34 18 193 17 228 -2z m592 -24 l29 -29 0 -252 0 -251
-25 -24 c-19 -20 -34 -25 -73 -25 -63 0 -109 16 -125 44 -18 31 -23 457 -6
498 17 42 64 68 122 68 40 0 54 -5 78 -29z"/>
</g>
</svg>
