<svg width="683" height="682" viewBox="0 0 683 682" fill="none" xmlns="http://www.w3.org/2000/svg">
<path d="M239.313 0.940898C238.779 1.3409 240.246 5.07426 242.513 9.07426C244.913 13.3409 246.379 17.6076 246.113 19.7409L245.713 23.3409H229.046C210.646 23.4743 203.313 25.4742 198.379 31.7409C194.779 36.2742 196.646 38.1409 205.713 39.0743C214.913 40.0076 222.379 43.6075 224.913 48.2742C227.979 53.7409 225.313 56.0076 215.446 56.0076C207.313 56.0076 198.379 59.0743 198.379 61.8743C198.379 62.6743 200.779 64.6742 203.713 66.4076C211.979 71.0742 211.313 73.6076 197.846 90.6742C173.179 122.008 170.779 155.608 190.246 193.741C197.046 206.941 207.979 223.208 224.246 244.141C248.913 276.008 263.446 295.474 270.913 306.941C279.713 320.541 291.179 343.741 292.379 350.941C293.179 355.474 293.046 356.008 290.646 356.008C288.646 356.008 283.846 350.274 273.179 335.608C224.113 268.008 179.579 233.341 124.513 219.874C91.446 211.741 48.646 217.074 10.246 234.008C-5.62066 240.941 -29.0873 254.008 -33.2207 258.141C-40.954 265.874 -35.2207 268.408 -13.8873 266.674C7.446 264.941 23.446 266.674 37.446 272.408C48.7793 276.941 51.9793 279.874 49.7127 283.474C48.9127 284.674 39.046 291.074 27.7127 297.608C-10.6873 319.874 -27.0873 331.874 -34.8207 343.608C-42.0207 354.408 -40.0207 354.808 -28.0207 345.208C-12.154 332.408 1.57934 327.208 44.3793 318.141C78.9127 310.941 82.9127 310.274 86.3793 311.341C90.5127 312.674 89.7127 316.541 82.1127 335.474C73.846 356.008 72.646 365.741 78.3793 366.408C80.646 366.541 87.1793 363.341 98.1127 356.808C125.179 340.408 143.979 334.274 168.379 334.274C185.579 334.274 196.779 336.541 211.313 343.341C242.779 357.874 269.713 390.408 279.979 426.274C284.246 441.341 284.246 461.874 279.846 471.741C269.713 494.274 244.246 496.674 205.979 478.541C189.579 470.808 185.179 475.341 196.646 488.274C228.913 524.674 272.246 527.208 306.513 494.941C339.313 464.141 352.913 415.608 346.113 354.408C345.179 346.541 344.913 339.608 345.446 339.074C347.446 337.208 350.646 342.541 355.046 355.474C363.046 379.074 364.379 388.274 364.246 417.341C364.113 442.008 363.979 444.141 359.979 458.674C351.446 490.541 340.113 511.474 317.713 536.141C299.179 556.541 288.913 570.141 283.046 582.008C272.513 603.341 271.846 623.341 280.913 644.541C287.579 659.874 308.513 685.074 311.846 681.741C313.046 680.541 311.446 676.008 305.313 663.074C295.579 642.541 293.979 636.674 294.513 623.074C295.446 604.008 305.713 590.008 332.379 571.074C369.579 544.808 394.113 505.608 407.846 450.141C412.113 432.808 414.379 428.008 418.379 428.008C424.113 428.008 427.846 440.541 430.379 467.341C432.246 487.874 433.313 491.208 434.513 480.008C435.579 470.408 433.979 436.141 431.713 421.874C431.046 416.808 427.846 402.008 424.913 389.074C419.179 364.408 418.913 358.674 423.713 358.674C425.179 358.674 426.379 357.874 426.379 356.941C426.246 353.741 421.179 344.008 411.713 329.341C406.513 321.208 401.179 311.874 399.979 308.541C397.846 302.674 397.846 302.408 400.379 300.541C402.779 298.674 402.379 298.141 391.313 287.341C377.446 273.741 374.779 270.008 376.913 267.474C379.046 264.941 373.446 261.608 345.046 247.741C316.913 234.008 299.846 222.808 286.113 209.208C272.913 196.008 268.513 187.741 269.313 177.074C269.846 170.541 270.513 168.541 273.846 165.474C279.713 159.608 283.046 159.208 286.646 163.474C295.313 173.874 300.779 179.074 305.046 181.341C311.846 184.808 322.913 187.741 334.646 189.208C348.913 190.941 357.579 195.208 370.379 207.208C382.513 218.674 387.446 221.608 393.979 221.608C398.379 221.608 402.379 219.474 402.379 217.208C402.379 216.541 399.046 214.008 395.046 211.341C385.846 205.608 385.579 202.541 392.913 191.474C401.179 178.941 403.046 174.141 401.046 169.474C398.379 163.074 378.113 148.008 366.379 143.874C360.913 142.008 354.513 139.474 352.379 138.408C350.113 137.208 345.046 135.341 341.046 134.141C331.713 131.341 329.846 130.141 330.779 127.474C332.379 123.341 340.779 121.074 351.579 121.608C359.579 122.008 363.579 122.941 370.379 126.274C380.113 131.074 383.846 132.008 408.113 135.874C430.779 139.608 440.513 139.608 442.379 135.874C444.379 132.274 446.779 108.541 445.713 103.074C444.646 97.2075 438.913 90.8076 432.113 87.7409C429.046 86.4076 421.046 84.1409 414.513 82.6742C389.713 77.3409 381.446 70.2743 361.713 37.3409C348.513 15.0743 342.113 10.8076 328.379 15.2076C316.779 18.8076 314.913 18.2742 297.846 6.14091C291.713 1.74091 290.113 1.20757 288.379 2.67424C287.313 3.60757 286.379 5.07422 286.379 6.00755C286.379 7.07422 284.779 9.60758 282.913 11.8742C280.113 15.3409 278.513 16.0075 273.846 16.0075C269.046 16.0075 266.513 14.8075 257.046 8.00755C246.913 0.674215 241.579 -1.4591 239.313 0.940898ZM331.313 44.2742C334.513 46.9409 336.913 53.6076 336.113 57.7409C335.046 62.8076 328.513 68.0076 322.913 68.0076C316.246 68.0076 310.113 62.1409 310.113 55.6076C310.113 49.8743 313.179 44.4076 317.446 42.6742C321.046 41.0742 328.646 42.0075 331.313 44.2742Z" fill="#465EDF"/>
<path d="M417.75 157.865C415.083 160.398 418.95 163.998 438.816 177.065C460.15 191.065 464.416 194.931 471.083 206.531C478.95 219.998 479.483 220.398 486.416 218.131C500.016 213.731 508.283 217.331 522.416 233.865C527.883 240.398 535.35 247.731 538.95 250.131C552.016 258.665 565.883 260.131 579.216 254.265C589.483 249.731 586.016 244.398 569.483 239.465C552.15 234.265 550.283 232.398 547.616 216.265C545.75 205.731 542.95 200.531 535.616 193.865C530.016 188.798 529.35 188.531 517.483 186.265C507.483 184.265 503.216 182.131 494.816 174.665C485.75 166.798 477.883 164.131 456.016 161.598C445.883 160.398 435.083 158.931 432.15 158.265C425.883 156.798 418.95 156.531 417.75 157.865Z" fill="#CF0CEF"/>
<path d="M510.926 442.576C510.926 449.195 508.015 453.701 502.193 456.093C509.929 457.848 513.797 462.394 513.797 469.731C513.797 480.896 505.024 486.479 487.479 486.479C482.375 486.479 477.111 486.319 471.688 486L472.406 468.774L471.688 428.34L492.264 428.221C498.166 428.221 502.751 429.457 506.021 431.929C509.291 434.401 510.926 437.95 510.926 442.576ZM498.485 444.25C498.485 441.619 497.727 439.745 496.212 438.628C494.696 437.512 491.985 436.953 488.077 436.953H483.651L483.412 452.624L491.786 452.983C496.252 451.787 498.485 448.876 498.485 444.25ZM490.829 477.746C493.779 477.746 496.291 477.028 498.365 475.593C500.438 474.077 501.475 471.924 501.475 469.133C501.475 464.906 498.684 462.274 493.101 461.237L483.172 461.357L483.053 467.697L483.412 477.387C485.485 477.626 487.957 477.746 490.829 477.746ZM552.604 475.234C552.604 478.663 552.046 481.534 550.929 483.847C548.696 488.393 543.353 492.26 534.899 495.45L531.191 488.991V488.034C534.859 486.12 537.451 484.206 538.967 482.292C540.562 480.378 541.359 477.945 541.359 474.994V468.176L540.881 437.312L531.311 437.551L530.354 436.594L531.071 428.34H552.963L552.365 466.979L552.604 475.234ZM604.108 455.495C610.967 465.065 618.344 474.396 626.239 483.488L626 484.804C622.331 485.681 618.384 486.399 614.157 486.957L612.721 486.12C604.188 474.476 597.289 464.547 592.026 456.333L591.787 467.697L592.265 486H579.944L580.781 468.774L579.944 428.34H592.385L592.026 455.136L608.056 433.843L611.405 428.34H624.564L604.108 455.495Z" fill="black"/>
</svg>
