<svg width="624" height="683" viewBox="0 0 624 683" fill="none" xmlns="http://www.w3.org/2000/svg">
<path d="M289.6 0.933329C289.067 1.33333 290.533 5.06669 292.8 9.06669C295.2 13.3334 296.667 17.6 296.4 19.7333L296 23.3334H279.333C260.933 23.4667 253.6 25.4667 248.667 31.7333C245.067 36.2667 246.933 38.1334 256 39.0667C265.2 40 272.667 43.6 275.2 48.2666C278.267 53.7333 275.6 56 265.733 56C257.6 56 248.667 59.0667 248.667 61.8667C248.667 62.6667 251.067 64.6667 254 66.4C262.267 71.0667 261.6 73.6 248.133 90.6667C223.467 122 221.067 155.6 240.533 193.733C247.333 206.933 258.267 223.2 274.533 244.133C299.2 276 313.733 295.467 321.2 306.933C330 320.533 341.467 343.733 342.667 350.933C343.467 355.467 343.333 356 340.933 356C338.933 356 334.133 350.267 323.467 335.6C274.4 268 229.867 233.333 174.8 219.867C141.733 211.733 98.9333 217.067 60.5333 234C44.6667 240.933 21.2 254 17.0667 258.133C9.33333 265.867 15.0667 268.4 36.4 266.667C57.7333 264.933 73.7333 266.667 87.7333 272.4C99.0667 276.933 102.267 279.867 100 283.467C99.2 284.667 89.3333 291.067 78 297.6C39.6 319.867 23.2 331.867 15.4667 343.6C8.26666 354.4 10.2667 354.8 22.2667 345.2C38.1333 332.4 51.8667 327.2 94.6667 318.133C129.2 310.933 133.2 310.267 136.667 311.333C140.8 312.667 140 316.533 132.4 335.467C124.133 356 122.933 365.733 128.667 366.4C130.933 366.533 137.467 363.333 148.4 356.8C175.467 340.4 194.267 334.267 218.667 334.267C235.867 334.267 247.067 336.533 261.6 343.333C293.067 357.867 320 390.4 330.267 426.267C334.533 441.333 334.533 461.867 330.133 471.733C320 494.267 294.533 496.667 256.267 478.533C239.867 470.8 235.467 475.333 246.933 488.267C279.2 524.667 322.533 527.2 356.8 494.933C389.6 464.133 403.2 415.6 396.4 354.4C395.467 346.533 395.2 339.6 395.733 339.067C397.733 337.2 400.933 342.533 405.333 355.467C413.333 379.067 414.667 388.267 414.533 417.333C414.4 442 414.267 444.133 410.267 458.667C401.733 490.533 390.4 511.467 368 536.133C349.467 556.533 339.2 570.133 333.333 582C322.8 603.333 322.133 623.333 331.2 644.533C337.867 659.867 358.8 685.067 362.133 681.733C363.333 680.533 361.733 676 355.6 663.067C345.867 642.533 344.267 636.667 344.8 623.067C345.733 604 356 590 382.667 571.067C419.867 544.8 444.4 505.6 458.133 450.133C462.4 432.8 464.667 428 468.667 428C474.4 428 478.133 440.533 480.667 467.333C482.533 487.867 483.6 491.2 484.8 480C485.867 470.4 484.267 436.133 482 421.867C481.333 416.8 478.133 402 475.2 389.067C469.467 364.4 469.2 358.667 474 358.667C475.467 358.667 476.667 357.867 476.667 356.933C476.533 353.733 471.467 344 462 329.333C456.8 321.2 451.467 311.867 450.267 308.533C448.133 302.667 448.133 302.4 450.667 300.533C453.067 298.667 452.667 298.133 441.6 287.333C427.733 273.733 425.067 270 427.2 267.467C429.333 264.933 423.733 261.6 395.333 247.733C367.2 234 350.133 222.8 336.4 209.2C323.2 196 318.8 187.733 319.6 177.067C320.133 170.533 320.8 168.533 324.133 165.467C330 159.6 333.333 159.2 336.933 163.467C345.6 173.867 351.067 179.067 355.333 181.333C362.133 184.8 373.2 187.733 384.933 189.2C399.2 190.933 407.867 195.2 420.667 207.2C432.8 218.667 437.733 221.6 444.267 221.6C448.667 221.6 452.667 219.467 452.667 217.2C452.667 216.533 449.333 214 445.333 211.333C436.133 205.6 435.867 202.533 443.2 191.467C451.467 178.933 453.333 174.133 451.333 169.467C448.667 163.067 428.4 148 416.667 143.867C411.2 142 404.8 139.467 402.667 138.4C400.4 137.2 395.333 135.333 391.333 134.133C382 131.333 380.133 130.133 381.067 127.467C382.667 123.333 391.067 121.067 401.867 121.6C409.867 122 413.867 122.933 420.667 126.267C430.4 131.067 434.133 132 458.4 135.867C481.067 139.6 490.8 139.6 492.667 135.867C494.667 132.267 497.067 108.533 496 103.067C494.933 97.2 489.2 90.8 482.4 87.7333C479.333 86.4 471.333 84.1333 464.8 82.6667C440 77.3333 431.733 70.2667 412 37.3334C398.8 15.0667 392.4 10.8 378.667 15.2C367.067 18.8 365.2 18.2667 348.133 6.13334C342 1.73334 340.4 1.2 338.667 2.66667C337.6 3.6 336.667 5.06665 336.667 5.99998C336.667 7.06665 335.067 9.60001 333.2 11.8667C330.4 15.3333 328.8 16 324.133 16C319.333 16 316.8 14.8 307.333 7.99998C297.2 0.666647 291.867 -1.46667 289.6 0.933329ZM381.6 44.2666C384.8 46.9333 387.2 53.6 386.4 57.7333C385.333 62.8 378.8 68 373.2 68C366.533 68 360.4 62.1334 360.4 55.6C360.4 49.8667 363.467 44.4 367.733 42.6667C371.333 41.0667 378.933 42 381.6 44.2666Z" fill="#DF7446"/>
<path d="M455.75 150.865C453.083 153.398 456.95 156.998 476.816 170.065C498.15 184.065 502.416 187.931 509.083 199.531C516.95 212.998 517.483 213.398 524.416 211.131C538.016 206.731 546.283 210.331 560.416 226.865C565.883 233.398 573.35 240.731 576.95 243.131C590.016 251.665 603.883 253.131 617.216 247.265C627.483 242.731 624.016 237.398 607.483 232.465C590.15 227.265 588.283 225.398 585.616 209.265C583.75 198.731 580.95 193.531 573.616 186.865C568.016 181.798 567.35 181.531 555.483 179.265C545.483 177.265 541.216 175.131 532.816 167.665C523.75 159.798 515.883 157.131 494.016 154.598C483.883 153.398 473.083 151.931 470.15 151.265C463.883 149.798 456.95 149.531 455.75 150.865Z" fill="#EF0C0C"/>
<path d="M187.926 547.576C187.926 554.195 185.015 558.701 179.193 561.093C186.929 562.848 190.797 567.394 190.797 574.731C190.797 585.896 182.024 591.479 164.479 591.479C159.375 591.479 154.111 591.319 148.688 591L149.406 573.774L148.688 533.34L169.264 533.221C175.166 533.221 179.751 534.457 183.021 536.929C186.291 539.401 187.926 542.95 187.926 547.576ZM175.485 549.25C175.485 546.619 174.727 544.745 173.212 543.628C171.696 542.512 168.985 541.953 165.077 541.953H160.651L160.412 557.624L168.786 557.983C173.252 556.787 175.485 553.876 175.485 549.25ZM167.829 582.746C170.779 582.746 173.291 582.028 175.365 580.593C177.438 579.077 178.475 576.924 178.475 574.133C178.475 569.906 175.684 567.274 170.101 566.237L160.172 566.357L160.053 572.697L160.412 582.387C162.485 582.626 164.957 582.746 167.829 582.746ZM229.604 580.234C229.604 583.663 229.046 586.534 227.929 588.847C225.696 593.393 220.353 597.26 211.899 600.45L208.191 593.991V593.034C211.859 591.12 214.451 589.206 215.967 587.292C217.562 585.378 218.359 582.945 218.359 579.994V573.176L217.881 542.312L208.311 542.551L207.354 541.594L208.071 533.34H229.963L229.365 571.979L229.604 580.234ZM281.108 560.495C287.967 570.065 295.344 579.396 303.239 588.488L303 589.804C299.331 590.681 295.384 591.399 291.157 591.957L289.721 591.12C281.188 579.476 274.289 569.547 269.026 561.333L268.787 572.697L269.265 591H256.944L257.781 573.774L256.944 533.34H269.385L269.026 560.136L285.056 538.843L288.405 533.34H301.564L281.108 560.495Z" fill="black"/>
</svg>
